<svg width="11" height="30" viewBox="0 0 11 30" fill="none" xmlns="http://www.w3.org/2000/svg">
<path fill-rule="evenodd" clip-rule="evenodd" d="M5.5 0C6.05228 0 6.5 0.447715 6.5 1V29C6.5 29.5523 6.05228 30 5.5 30C4.94772 30 4.5 29.5523 4.5 29V1C4.5 0.447715 4.94772 0 5.5 0Z" fill="white"/>
<path fill-rule="evenodd" clip-rule="evenodd" d="M1 0C1.55228 0 2 0.447715 2 1V6.5C2 7.05686 2.19203 7.81518 2.70088 8.41656C3.18001 8.98281 4.01446 9.5 5.49993 9.5C6.05221 9.5 6.49993 9.94771 6.49993 10.5C6.49993 11.0523 6.05221 11.5 5.49993 11.5C3.48547 11.5 2.06995 10.7672 1.1741 9.70844C0.307973 8.68482 0 7.44314 0 6.5V1C0 0.447715 0.447715 0 1 0Z" fill="white"/>
<path fill-rule="evenodd" clip-rule="evenodd" d="M10 0C9.44771 0 9 0.447715 9 1V6.5C9 7.05686 8.80797 7.81518 8.29912 8.41656C7.81999 8.98281 6.9854 9.5 5.49993 9.5C4.94765 9.5 4.50007 9.94771 4.50007 10.5C4.50007 11.0523 4.94765 11.5 5.49993 11.5C7.51439 11.5 8.93005 10.7672 9.8259 9.70844C10.692 8.68482 11 7.44314 11 6.5V1C11 0.447715 10.5523 0 10 0Z" fill="white"/>
</svg>
