<svg width="7" height="30" viewBox="0 0 7 30" fill="none" xmlns="http://www.w3.org/2000/svg">
<path fill-rule="evenodd" clip-rule="evenodd" d="M1.11732 0.0761497C1.49099 -0.0786313 1.92111 0.00692445 2.20711 0.292922C3.1156 1.20142 4.30382 3.17065 5.2659 6.21082C6.23728 9.28039 7 13.5081 7 19C7 19.5523 6.55228 20 6 20H2.5V29C2.5 29.5523 2.05228 30 1.5 30C0.947715 30 0.5 29.5523 0.5 29V1.00003C0.5 0.595567 0.743642 0.230931 1.11732 0.0761497ZM2.5 18H4.99115C4.90527 13.1836 4.20508 9.48755 3.3591 6.81424C3.08072 5.93457 2.78851 5.1715 2.5 4.51895V18Z" fill="white"/>
</svg>
